<?xml version="1.0" encoding="utf-8"?>
<!-- Generator: Adobe Illustrator 24.0.1, SVG Export Plug-In . SVG Version: 6.00 Build 0)  -->
<svg version="1.1" id="Layer_1" xmlns="http://www.w3.org/2000/svg" xmlns:xlink="http://www.w3.org/1999/xlink" x="0px" y="0px"
	 viewBox="0 0 113.4 113.4" style="enable-background:new 0 0 113.4 113.4;" xml:space="preserve">
<style type="text/css">
	.st0{fill:#00ADEE;}
</style>
<path class="st0" d="M105.8,85c-0.7,1.3-2.1,2-3.4,2c-0.7,0-1.4-0.2-2-0.5c-1.9-1.1-2.5-3.5-1.4-5.4c11-19.1,7.8-43.3-7.8-58.9
	C75.6,6.6,51.4,3.4,32.3,14.4c-1.9,1.1-4.3,0.4-5.4-1.4c-1.1-1.9-0.4-4.3,1.4-5.4c22.2-12.8,50.3-9.1,68.4,9
	C114.9,34.7,118.6,62.9,105.8,85z M81.1,99c-19.1,11-43.3,7.8-58.9-7.8C6.6,75.6,3.4,51.4,14.4,32.3c1.1-1.9,0.4-4.3-1.4-5.4
	c-1.9-1.1-4.3-0.5-5.4,1.4c-12.8,22.2-9.1,50.3,9,68.4c10.9,10.9,25.5,16.6,40.2,16.6c9.7,0,19.5-2.5,28.3-7.6
	c1.9-1.1,2.5-3.5,1.4-5.4C85.4,98.5,83,97.9,81.1,99z M94.1,90L94.1,90c-2.2,0-4,1.8-4,4s1.8,4,4,4c2.2,0,4-1.8,4-4S96.2,90,94.1,90
	z M19.5,23.4c2.2,0,4-1.8,4-4s-1.8-4-4-4h0c-2.2,0-3.9,1.8-3.9,4S17.3,23.4,19.5,23.4z M87.5,74.5c-0.1,0.1-0.1,0.2-0.2,0.3
	c-3.1,5.2-7.4,9.6-12.7,12.6c-0.1,0-0.1,0.1-0.2,0.1c-0.1,0-0.2,0.1-0.2,0.1c-5.2,3-11.2,4.7-17.6,4.7s-12.4-1.7-17.6-4.7
	c-0.1,0-0.2-0.1-0.2-0.1c-0.1,0-0.1-0.1-0.2-0.1c-5.2-3.1-9.6-7.4-12.6-12.6c-0.1-0.1-0.2-0.2-0.2-0.3c0-0.1,0-0.1-0.1-0.2
	c-3-5.2-4.7-11.2-4.7-17.6s1.7-12.4,4.7-17.6c0-0.1,0-0.1,0.1-0.2c0-0.1,0.1-0.1,0.2-0.2c3.1-5.2,7.5-9.6,12.7-12.7
	c0.1,0,0.1-0.1,0.2-0.2c0.1,0,0.1,0,0.2-0.1c5.2-3,11.2-4.7,17.6-4.7s12.4,1.7,17.6,4.7c0.1,0,0.1,0,0.2,0.1c0.1,0,0.1,0.1,0.2,0.2
	c5.2,3.1,9.6,7.5,12.7,12.7c0,0.1,0.1,0.1,0.1,0.2c0,0.1,0,0.1,0.1,0.2c3,5.2,4.7,11.2,4.7,17.6c0,6.4-1.7,12.4-4.7,17.6
	C87.6,74.4,87.6,74.4,87.5,74.5z M82.4,67c0.8-2,1.4-4.1,1.7-6.3h-1c-2.2,0-4-1.8-4-4c0-2.2,1.8-4,4-4h1c-0.3-2.2-0.9-4.3-1.7-6.3
	l-0.9,0.5c-0.6,0.4-1.3,0.5-2,0.5c-1.4,0-2.7-0.7-3.4-2c-1.1-1.9-0.4-4.3,1.4-5.4l0.9-0.5c-1.4-1.7-2.9-3.3-4.6-4.6l-0.5,0.9
	c-0.7,1.3-2.1,2-3.4,2c-0.7,0-1.4-0.2-2-0.5c-1.9-1.1-2.5-3.5-1.4-5.4L67,31c-2-0.8-4.1-1.4-6.3-1.7v1c0,2.2-1.8,4-4,4s-4-1.8-4-4
	v-1c-2.2,0.3-4.3,0.9-6.3,1.7l0.5,0.9c1.1,1.9,0.4,4.3-1.4,5.4c-0.6,0.4-1.3,0.5-2,0.5c-1.4,0-2.7-0.7-3.4-2L39.6,35
	c-1.7,1.4-3.3,2.9-4.6,4.6l0.9,0.5c1.9,1.1,2.5,3.5,1.4,5.4c-0.7,1.3-2.1,2-3.4,2c-0.7,0-1.3-0.2-2-0.5L31,46.4
	c-0.8,2-1.4,4.1-1.7,6.3h1c2.2,0,4,1.8,4,4c0,2.2-1.8,4-4,4h-1c0.3,2.2,0.9,4.3,1.7,6.3l0.9-0.5c1.9-1.1,4.3-0.4,5.4,1.4
	c1.1,1.9,0.4,4.3-1.4,5.4L35,73.8c1.4,1.7,2.9,3.3,4.6,4.6l0.5-0.9c1.1-1.9,3.5-2.5,5.4-1.4c1.9,1.1,2.5,3.5,1.4,5.4l-0.5,0.9
	c2,0.8,4.1,1.4,6.3,1.7v-1c0-2.2,1.8-4,4-4s4,1.8,4,4v1c2.2-0.3,4.3-0.9,6.3-1.7l-0.5-0.9c-1.1-1.9-0.4-4.3,1.4-5.4
	c1.9-1.1,4.3-0.5,5.4,1.4l0.5,0.9c1.7-1.4,3.3-2.9,4.6-4.6l-0.9-0.5c-1.9-1.1-2.5-3.5-1.4-5.4c1.1-1.9,3.5-2.5,5.4-1.4L82.4,67z
	 M71.2,56.7c0,8-6.5,14.5-14.5,14.5s-14.5-6.5-14.5-14.5c0-8,6.5-14.5,14.5-14.5S71.2,48.7,71.2,56.7z M63.3,56.7
	c0-3.6-3-6.6-6.6-6.6c-3.6,0-6.6,3-6.6,6.6c0,3.6,3,6.6,6.6,6.6C60.3,63.3,63.3,60.3,63.3,56.7z"/>
</svg>
