<?xml version="1.0" encoding="utf-8"?>
<!-- Generator: Adobe Illustrator 24.0.1, SVG Export Plug-In . SVG Version: 6.00 Build 0)  -->
<svg version="1.1" id="Layer_1" xmlns="http://www.w3.org/2000/svg" xmlns:xlink="http://www.w3.org/1999/xlink" x="0px" y="0px"
	 viewBox="0 0 218.27 70.87" style="enable-background:new 0 0 218.27 70.87;" xml:space="preserve">
<style type="text/css">
	.st0{fill:url(#SVGID_1_);}
	.st1{fill:#00AEEF;}
	.st2{fill:#7BC257;}
</style>
<g>
	<linearGradient id="SVGID_1_" gradientUnits="userSpaceOnUse" x1="16.2438" y1="58.2618" x2="64.287" y2="10.4776">
		<stop  offset="0" style="stop-color:#00AEEF"/>
		<stop  offset="1" style="stop-color:#8DC63F"/>
	</linearGradient>
	<path class="st0" d="M67.84,35.05c-3.45-1.08-5.96-4.31-5.96-8.12v-8.51c0-3.13-2.54-5.67-5.67-5.67H22.19
		c-3.13,0-5.67,2.54-5.67,5.67v8.5c0,3.81-2.51,7.04-5.96,8.12c-0.39,0.12-0.39,0.65,0,0.77c3.45,1.08,5.96,4.31,5.96,8.12v8.5
		c0,3.13,2.54,5.67,5.67,5.67H56.2c3.13,0,5.67-2.54,5.67-5.67v-8.51c0-3.81,2.51-7.04,5.96-8.12
		C68.22,35.7,68.22,35.17,67.84,35.05z M51.66,47.08c0,1.33-1.25,2.46-2.69,2.46c-1.48,0-2.77-1.13-2.77-2.46V33.66l-4.45,8.74
		c-0.51,1.01-1.48,1.48-2.57,1.48c-1.05,0-2.03-0.47-2.54-1.48l-4.45-8.74v13.42c0,1.33-1.29,2.46-2.81,2.46
		c-1.48,0-2.65-1.13-2.65-2.46V23.91c0-1.48,1.21-2.57,2.81-2.57c1.25,0,2.22,0.51,2.73,1.52l6.94,13.77l6.94-13.81
		c0.55-1.13,1.6-1.48,2.69-1.48c1.6,0,2.81,1.17,2.81,2.57V47.08z"/>
	<g>
		<path class="st1" d="M94.39,40.72c0,0.89-0.84,1.65-1.81,1.65c-1,0-1.86-0.76-1.86-1.65v-9.04l-2.99,5.88c-0.34,0.68-1,1-1.73,1
			c-0.71,0-1.37-0.32-1.71-1l-2.99-5.88v9.04c0,0.89-0.87,1.65-1.89,1.65c-1,0-1.79-0.76-1.79-1.65v-15.6c0-1,0.81-1.73,1.89-1.73
			c0.84,0,1.5,0.34,1.84,1.02l4.68,9.27l4.68-9.3c0.37-0.76,1.08-1,1.81-1c1.08,0,1.89,0.79,1.89,1.73V40.72z"/>
		<path class="st1" d="M99.36,27.06c-1.16,0-2.05-0.84-2.05-1.84c0-1.02,0.89-1.84,2.05-1.84c1.16,0,2.05,0.84,2.05,1.84
			C101.41,26.25,100.52,27.06,99.36,27.06z M101.17,40.7c0,0.92-0.79,1.63-1.81,1.63c-1.02,0-1.81-0.71-1.81-1.63V30.35
			c0-0.87,0.79-1.6,1.81-1.6c1.02,0,1.81,0.73,1.81,1.6V40.7z"/>
		<path class="st1" d="M103.86,33.76c0-2.81,1.68-5.02,5.44-5.02c1.55,0,4.49,0.37,4.49,2.29c0,0.63-0.32,1.34-1.63,1.34
			c-0.26,0-0.5-0.03-0.87-0.16c-0.55-0.21-0.97-0.45-1.79-0.45c-1.44,0-2.02,0.76-2.02,2v3.55c0,1.23,0.58,2,2.02,2
			c0.81,0,1.26-0.24,1.79-0.45c0.26-0.11,0.45-0.16,0.81-0.16c1.37,0,1.68,0.74,1.68,1.34c0,1.89-2.94,2.29-4.52,2.29
			c-3.7,0-5.41-2.21-5.41-5.02V33.76z"/>
		<path class="st1" d="M119.93,32.27c0.03,0.18,0.05,0.34,0.05,0.5v7.93c0,0.92-0.79,1.63-1.81,1.63c-1.02,0-1.81-0.71-1.81-1.63
			v-7.93c0-0.6-0.08-0.92-0.29-1.23c-0.21-0.26-0.37-0.47-0.37-0.87c0-0.95,0.84-1.58,1.79-1.58c0.55,0,1.02,0.34,1.39,0.81
			c1.21-0.71,2.42-1.13,3.26-1.13c1.65,0,2.15,0.68,2.15,1.58c0,1.02-0.84,1.71-1.84,1.66C121.32,31.95,120.85,31.9,119.93,32.27z"
			/>
		<path class="st1" d="M125.83,37.44v-3.91c0-2.76,1.97-4.89,5.7-4.89c3.73,0,5.7,2.13,5.7,4.89v3.91c0,2.76-1.97,4.89-5.7,4.89
			C127.8,42.33,125.83,40.2,125.83,37.44z M133.6,37.44V33.5c0-1.08-0.71-1.76-2.07-1.76c-1.37,0-2.08,0.68-2.08,1.76v3.94
			c0,1.1,0.71,1.79,2.08,1.79C132.89,39.23,133.6,38.54,133.6,37.44z"/>
		<path class="st2" d="M139.52,33.76c0-2.81,1.68-5.02,5.44-5.02c1.55,0,4.49,0.37,4.49,2.29c0,0.63-0.32,1.34-1.63,1.34
			c-0.26,0-0.5-0.03-0.87-0.16c-0.55-0.21-0.97-0.45-1.79-0.45c-1.45,0-2.02,0.76-2.02,2v3.55c0,1.23,0.58,2,2.02,2
			c0.81,0,1.26-0.24,1.79-0.45c0.26-0.11,0.45-0.16,0.81-0.16c1.37,0,1.68,0.74,1.68,1.34c0,1.89-2.94,2.29-4.52,2.29
			c-3.7,0-5.41-2.21-5.41-5.02V33.76z"/>
		<path class="st2" d="M151.26,37.44v-3.91c0-2.76,1.97-4.89,5.7-4.89c3.73,0,5.7,2.13,5.7,4.89v3.91c0,2.76-1.97,4.89-5.7,4.89
			C153.23,42.33,151.26,40.2,151.26,37.44z M159.03,37.44V33.5c0-1.08-0.71-1.76-2.07-1.76c-1.37,0-2.08,0.68-2.08,1.76v3.94
			c0,1.1,0.71,1.79,2.08,1.79C158.32,39.23,159.03,38.54,159.03,37.44z"/>
		<path class="st2" d="M168.97,40.7c0,0.89-0.6,1.6-1.81,1.6c-1.21,0-1.81-0.71-1.81-1.6v-7.96c0-0.87-0.11-0.95-0.21-1.1
			c-0.37-0.5-0.45-0.68-0.45-1.02c0-0.87,0.76-1.52,1.76-1.52c0.55,0,1.02,0.29,1.39,0.76c1.18-0.79,2.42-1.13,3.47-1.13
			c3.31,0,4.97,2.05,4.97,5.12v6.86c0,0.89-0.66,1.6-1.81,1.6c-1.16,0-1.81-0.71-1.81-1.6v-6.86c0-1.31-0.66-2.13-1.71-2.13
			c-0.55,0-1.21,0.18-2.02,0.55c0.03,0.18,0.05,0.34,0.05,0.5V40.7z"/>
		<path class="st2" d="M179.28,28.3c0-3.47,2.44-5.07,5.36-5.12c0.68,0,3.2,0.03,3.2,1.76c0,1-0.84,1.58-1.79,1.58
			c-0.5,0-1.05-0.16-1.55-0.16c-1.1,0-1.6,0.81-1.6,1.76v1.29h1.94c0.97,0,1.73,0.68,1.73,1.58c0,0.89-0.76,1.55-1.73,1.55h-1.94
			v8.14c0,0.89-0.66,1.58-1.81,1.58c-1.16,0-1.81-0.68-1.81-1.58V28.3z M190.76,27.06c-1.16,0-2.05-0.84-2.05-1.84
			c0-1.02,0.89-1.84,2.05-1.84c1.16,0,2.05,0.84,2.05,1.84C192.81,26.25,191.92,27.06,190.76,27.06z M192.58,40.7
			c0,0.92-0.79,1.63-1.81,1.63c-1.02,0-1.81-0.71-1.81-1.63V30.35c0-0.87,0.79-1.6,1.81-1.6c1.02,0,1.81,0.73,1.81,1.6V40.7z"/>
		<path class="st2" d="M196.71,41.35c-0.42-0.73-0.55-1.6-0.55-2.15c0-0.6,0.18-1.23,0.74-1.92c-1.13-0.95-1.68-2.18-1.68-3.63
			c0-2.84,1.89-4.99,5.25-4.99c1.34,0,2.39,0.34,3.52,0.89c0.71-0.97,1.58-1.45,2.31-1.45c0.89,0,1.71,0.66,1.71,1.52
			c0,0.45-0.24,0.79-0.42,0.95c-0.92,0.81-1.18,1.05-1.18,1.79v1.47c0,2.71-1.81,4.78-5.65,4.78c-0.42,0-0.97-0.03-1.45-0.13
			c-0.13,0.34-0.16,0.42-0.16,0.61c0,0.73,0.42,0.84,0.74,0.84h1.1c3.41,0,6.04,1.26,6.04,4.05c0,2.78-2.6,4.52-6.17,4.52
			c-3.44,0-5.83-1.63-5.83-4.26C195.03,43.22,195.47,42.35,196.71,41.35z M199.12,42.88c-0.32,0.39-0.47,0.68-0.47,1.1
			c0,0.97,0.74,1.55,2.26,1.55c1.5,0,2.5-0.55,2.5-1.47c0-0.79-0.74-1.16-2.36-1.16L199.12,42.88z M200.91,31.58
			c-1.34,0-2.08,0.76-2.08,2.13c0,1.26,0.61,2.08,2.02,2.08c1.31,0,1.92-0.74,1.92-1.92v-1.84
			C202.09,31.74,201.51,31.58,200.91,31.58z"/>
	</g>
</g>
</svg>
